<?xml version="1.0" standalone="no"?>
<!DOCTYPE svg PUBLIC "-//W3C//DTD SVG 20010904//EN"
 "http://www.w3.org/TR/2001/REC-SVG-20010904/DTD/svg10.dtd">
<svg version="1.0" xmlns="http://www.w3.org/2000/svg"
 width="700.000000pt" height="700.000000pt" viewBox="0 0 700.000000 700.000000"
 preserveAspectRatio="xMidYMid meet">
<metadata>
Created by potrace 1.14, written by Peter Selinger 2001-2017
</metadata>
<g transform="translate(0.000000,700.000000) scale(0.100000,-0.100000)"
fill="#000000" stroke="none">
<path d="M1653 6408 c-197 -29 -385 -188 -453 -382 -11 -30 -23 -79 -26 -108
-4 -29 -7 -1124 -7 -2433 0 -1851 3 -2393 12 -2440 41 -198 207 -376 411 -441
51 -16 129 -17 983 -19 l927 -2 0 292 0 291 -857 0 c-472 -1 -866 0 -875 3
-17 3 -18 122 -18 2331 0 1854 3 2329 13 2332 6 2 464 3 1017 2 l1005 -1 5
-729 5 -729 728 0 727 0 0 -292 0 -293 289 0 c222 0 290 3 293 13 2 6 3 204 3
438 l-1 425 -875 875 -874 874 -1190 0 c-654 1 -1213 -3 -1242 -7z"/>
<path d="M5878 3190 c-32 -10 -78 -30 -104 -45 -28 -16 -373 -352 -868 -846
l-822 -819 0 -447 1 -448 447 -1 447 -1 815 816 c449 449 828 833 842 854 45
68 66 143 67 242 1 163 -35 227 -248 443 -160 163 -236 222 -319 248 -73 23
-188 25 -258 4z m-332 -1145 l136 -134 -443 -446 -443 -445 -138 0 -138 0 0
138 0 137 442 442 c244 243 444 442 446 442 1 1 64 -60 138 -134z"/>
</g>
</svg>
